<?xml version="1.0" encoding="UTF-8" standalone="no"?>
<!-- Generator: Adobe Illustrator 15.1.0, SVG Export Plug-In . SVG Version: 6.00 Build 0)  -->

<svg
   xmlns:dc="http://purl.org/dc/elements/1.1/"
   xmlns:cc="http://creativecommons.org/ns#"
   xmlns:rdf="http://www.w3.org/1999/02/22-rdf-syntax-ns#"
   xmlns:svg="http://www.w3.org/2000/svg"
   xmlns="http://www.w3.org/2000/svg"
   xmlns:sodipodi="http://sodipodi.sourceforge.net/DTD/sodipodi-0.dtd"
   xmlns:inkscape="http://www.inkscape.org/namespaces/inkscape"
   version="1.1"
   x="0px"
   y="0px"
   width="5000"
   height="655.01721"
   viewBox="0 0 4999.9999 655.01722"
   enable-background="new 0 0 2000 2000"
   xml:space="preserve"
   id="svg14"
   sodipodi:docname="logo-horizontal.svg"
   inkscape:version="0.92.4 (5da689c313, 2019-01-14)"><metadata
   id="metadata20"><rdf:RDF><cc:Work
       rdf:about=""><dc:format>image/svg+xml</dc:format><dc:type
         rdf:resource="http://purl.org/dc/dcmitype/StillImage" /><dc:title></dc:title></cc:Work></rdf:RDF></metadata><defs
   id="defs18" /><sodipodi:namedview
   pagecolor="#ffffff"
   bordercolor="#666666"
   borderopacity="1"
   objecttolerance="10"
   gridtolerance="10"
   guidetolerance="10"
   inkscape:pageopacity="0"
   inkscape:pageshadow="2"
   inkscape:window-width="2532"
   inkscape:window-height="2032"
   id="namedview16"
   showgrid="false"
   inkscape:pagecheckerboard="true"
   fit-margin-top="0"
   fit-margin-left="0"
   fit-margin-right="0"
   fit-margin-bottom="0"
   inkscape:zoom="0.472"
   inkscape:cx="599.10427"
   inkscape:cy="-282.5495"
   inkscape:window-x="108"
   inkscape:window-y="54"
   inkscape:window-maximized="0"
   inkscape:current-layer="svg14" />
<g
   id="Logo_Artwork"
   transform="translate(-104.59999,-462.28243)">
</g>
<g
   id="Margin_x2F_Guide"
   transform="matrix(2.7920482,0,0,2.7920482,-292.04824,-2464.5374)">
	<g
   id="g11">
		<path
   d="m 742.504,971.206 v -22.948 h -70.943 v 22.948 h 22.65 v 82.034 h 25.646 v -82.034 z m 56.541,82.034 h 25.048 v -43.639 c 0,-16.051 -2.401,-37.049 -26.998,-37.049 -9.897,0 -16.497,5.401 -19.497,10.051 V 944.806 H 752.55 v 108.434 h 25.048 v -46.94 c 0,-6.298 4.198,-11.249 11.1,-11.249 5.996,0 10.348,3.901 10.348,11.249 v 46.94 z m 112.186,-32.84 c 0.148,-1.803 0.148,-3.451 0.148,-4.951 0,-26.85 -13.646,-42.896 -38.692,-42.896 -23.097,0 -38.697,18.448 -38.697,41.545 0,23.25 15.897,41.094 41.846,41.094 20.398,0 31.197,-12.749 33.445,-17.398 l -16.497,-12.744 c -1.501,2.248 -7.051,8.397 -16.497,8.397 -9.303,0 -16.052,-6.001 -16.65,-13.046 h 51.594 z m -38.093,-27.597 c 7.798,0 12.447,5.396 12.749,11.694 h -25.498 c 0.599,-5.545 4.496,-11.694 12.749,-11.694 z m 150.725,-12.299 c 0,-20.849 -11.996,-32.246 -36.742,-32.246 h -34.196 v 104.982 h 25.646 v -38.841 h 7.803 l 18.745,38.841 h 28.345 c -24.295,-45.287 -24.146,-44.99 -24.146,-44.99 9.599,-5.253 14.545,-16.199 14.545,-27.746 z m -38.841,-10.199 c 9.298,0 12.601,4.199 12.601,11.101 0,7.194 -4.353,11.546 -11.402,11.546 h -7.649 v -22.646 h 6.45 z m 129.882,50.095 c 0.148,-1.803 0.148,-3.451 0.148,-4.951 0,-26.85 -13.646,-42.896 -38.693,-42.896 -23.097,0 -38.697,18.448 -38.697,41.545 0,23.25 15.898,41.094 41.847,41.094 20.398,0 31.196,-12.749 33.444,-17.398 l -16.497,-12.744 c -1.5,2.248 -7.05,8.397 -16.497,8.397 -9.298,0 -16.047,-6.001 -16.65,-13.046 h 51.595 z m -38.093,-27.597 c 7.798,0 12.447,5.396 12.744,11.694 h -25.493 c 0.598,-5.545 4.5,-11.694 12.749,-11.694 z m 73.488,62.388 c 17.997,0 32.098,-9.897 32.098,-25.943 0,-28.499 -36.296,-22.795 -36.296,-32.697 0,-2.396 2.099,-3.901 5.698,-3.901 6.149,0 10.65,3.753 13.047,6.149 l 16.199,-12.744 c -4.648,-6.303 -13.199,-13.502 -28.196,-13.502 -17.096,0 -30.296,9.149 -30.296,24.3 0,28.643 35.995,24.746 35.995,33.742 0,2.852 -2.248,4.352 -7.051,4.352 -7.946,0 -13.194,-3.149 -17.397,-6.901 l -14.096,13.649 c 4.648,6.302 15.299,13.496 30.295,13.496 z m 114.736,-34.791 c 0.148,-1.803 0.148,-3.451 0.148,-4.951 0,-26.85 -13.646,-42.896 -38.692,-42.896 -23.102,0 -38.698,18.448 -38.698,41.545 0,23.25 15.898,41.094 41.847,41.094 20.398,0 31.196,-12.749 33.444,-17.398 l -16.496,-12.744 c -1.501,2.248 -7.051,8.397 -16.502,8.397 -9.294,0 -16.047,-6.001 -16.646,-13.046 h 51.595 z m -38.098,-27.597 c 7.803,0 12.452,5.396 12.749,11.694 h -25.493 c 0.598,-5.545 4.495,-11.694 12.744,-11.694 z m 93.589,-20.25 c -9.748,0 -17.096,4.803 -20.849,12.452 v -10.501 h -24.443 v 78.736 h 25.047 v -34.791 c 0,-11.848 4.046,-20.7 16.195,-20.7 1.798,0 3,0.153 4.05,0.302 z m 34.644,1.951 h -26.846 l 26.994,78.736 h 29.098 l 26.552,-78.736 h -26.097 l -14.849,52.193 z m 136.932,45.896 c 0.153,-1.803 0.153,-3.451 0.153,-4.951 0,-26.85 -13.65,-42.896 -38.693,-42.896 -23.101,0 -38.697,18.448 -38.697,41.545 0,23.25 15.897,41.094 41.847,41.094 20.394,0 31.196,-12.749 33.444,-17.398 l -16.497,-12.744 c -1.5,2.248 -7.051,8.397 -16.502,8.397 -9.298,0 -16.046,-6.001 -16.646,-13.046 h 51.591 z m -38.094,-27.597 c 7.803,0 12.451,5.396 12.749,11.694 h -25.493 c 0.598,-5.545 4.495,-11.694 12.744,-11.694 z m 131.535,20.393 v -22.795 h -26.098 v -19.195 h 29.846 v -22.948 h -55.492 v 104.982 h 25.646 v -40.044 z m 12.897,0.902 c 0,23.695 17.7,41.094 42.742,41.094 24.899,0 43.198,-17.695 43.198,-41.396 0,-23.844 -17.849,-41.242 -43.198,-41.242 -24.294,-10e-4 -42.742,17.694 -42.742,41.544 z m 25.047,0 c 0,-11.546 7.348,-19.498 17.695,-19.498 10.199,0 18.15,7.65 18.15,19.195 0,11.254 -7.798,19.35 -18.15,19.35 -10.194,0 -17.695,-7.65 -17.695,-19.047 z m 116.534,-41.545 c -9.749,0 -17.102,4.803 -20.85,12.452 v -10.501 h -24.443 v 78.736 h 25.048 v -34.791 c 0,-11.848 4.045,-20.7 16.194,-20.7 1.803,0 3.001,0.153 4.051,0.302 z m 50.392,60.592 c -11.546,0 -19.349,-7.799 -19.349,-19.35 0,-10.496 6.604,-18.744 18.447,-18.744 5.853,0 11.402,2.252 15.75,5.848 l 6.748,-21.146 c -5.545,-3.896 -13.195,-7.199 -23.395,-7.199 -24.299,0 -42.594,17.25 -42.594,41.396 0,24.146 17.695,41.242 42.743,41.242 9.897,0 17.849,-3.446 23.097,-7.046 l -6.6,-20.552 c -3.445,2.851 -8.994,5.551 -14.847,5.551 z m 104.839,-12.745 c 0.148,-1.803 0.148,-3.451 0.148,-4.951 0,-26.85 -13.646,-42.896 -38.692,-42.896 -23.097,0 -38.698,18.448 -38.698,41.545 0,23.25 15.898,41.094 41.847,41.094 20.398,0 31.197,-12.749 33.444,-17.398 l -16.496,-12.744 c -1.501,2.248 -7.051,8.397 -16.502,8.397 -9.294,0 -16.047,-6.001 -16.646,-13.046 h 51.595 z m -38.099,-27.597 c 7.803,0 12.452,5.396 12.749,11.694 h -25.493 c 0.6,-5.545 4.496,-11.694 12.744,-11.694 z"
   id="path3"
   inkscape:connector-curvature="0"
   style="clip-rule:evenodd;fill:#004d6e;fill-rule:evenodd" />
		<g
   id="g9">
			<path
   d="m 362.719,1073.787 v -9.173 c 87.053,-69.415 175.605,9.931 255.65,4.429 l 2.713,9.398 c -80.74,7.52 -170.314,-74.859 -258.363,-4.654 z m 0,-18.394 c 86.074,-68.644 173.592,7.779 252.918,4.213 l -2.741,-9.523 c -78.603,1.726 -165.099,-72.133 -250.177,-4.294 z m 0,-19.186 c 84.081,-67.053 169.566,4.318 247.416,4.337 l -2.794,-9.662 c -77.117,-1.653 -161.543,-70.521 -244.622,-4.275 z m 0,-19.2 c 82.077,-65.461 165.473,1.016 241.832,4.231 l -2.817,-9.781 c -75.589,-4.688 -157.953,-68.687 -239.015,-4.051 z m 0,-19.2 c 80.06,-63.836 161.38,-2.186 236.177,3.882 l -2.852,-9.888 c -74.025,-7.343 -154.282,-66.625 -233.325,-3.595 z m 0,-19.201 v -9.601 c 76.997,-61.405 155.158,-6.719 227.593,2.929 l 2.881,9.974 c -73.221,-8.55 -152.442,-65.512 -230.474,-3.302 z m 0,-19.185 v -9.601 c 74.95,-59.771 151.008,-9.537 221.799,2.08 l 2.914,10.07 c -71.62,-10.678 -148.733,-63.136 -224.713,-2.549 z m 0,-19.2 v -9.601 c 72.885,-58.132 146.814,-12.236 215.946,1.017 l 2.929,10.16 C 511.628,929.316 436.653,881.273 362.719,940.221 Z m 0,-19.2 c 71.854,-57.294 144.729,-13.482 213.004,0.47 l -2.957,-10.238 c -67.432,-14.57 -139.223,-56.306 -210.047,0.168 z"
   id="path5"
   inkscape:connector-curvature="0"
   style="clip-rule:evenodd;fill:#cb1a20;fill-rule:evenodd" />
			<path
   d="m 362.719,1112.988 c 88.045,-70.211 177.608,11.34 258.363,3.815 v -9.605 c -80.77,7.534 -170.318,-74.016 -258.363,-3.806 -87.954,-70.139 -177.412,11.173 -258.119,3.825 v 9.609 c 80.692,7.334 170.16,-73.976 258.119,-3.838 z m 0,-19.195 v 0 c -87.949,-70.139 -177.432,11.158 -258.119,3.839 v -9.614 c 80.692,7.328 170.16,-73.954 258.119,-3.824 88.045,-70.201 177.608,11.32 258.363,3.801 v 9.614 c -80.755,7.509 -170.324,-74.027 -258.363,-3.816 z m 0,-20.006 c -88.078,-71.744 -177.686,14.542 -258.119,3.326 l 47.947,-165.875 c 10.314,-2.22 20.734,-5.081 31.24,-8.134 l -15.917,63.452 26.159,-17.379 24.707,16.699 6.034,-74.529 c 45.412,-11.853 91.884,-16.65 137.948,20.072 v 162.368 z"
   id="path7"
   inkscape:connector-curvature="0"
   style="clip-rule:evenodd;fill:#004d6e;fill-rule:evenodd" />
		</g>
	</g>
</g>
</svg>