<?xml version="1.0" encoding="UTF-8" standalone="no"?>
<!-- Generator: Adobe Illustrator 15.1.0, SVG Export Plug-In . SVG Version: 6.00 Build 0)  -->

<svg
   xmlns:dc="http://purl.org/dc/elements/1.1/"
   xmlns:cc="http://creativecommons.org/ns#"
   xmlns:rdf="http://www.w3.org/1999/02/22-rdf-syntax-ns#"
   xmlns:svg="http://www.w3.org/2000/svg"
   xmlns="http://www.w3.org/2000/svg"
   xmlns:sodipodi="http://sodipodi.sourceforge.net/DTD/sodipodi-0.dtd"
   xmlns:inkscape="http://www.inkscape.org/namespaces/inkscape"
   version="1.1"
   x="0px"
   y="0px"
   width="5000"
   height="2119.5186"
   viewBox="0 0 5000 2119.5186"
   enable-background="new 0 0 2000 2000"
   xml:space="preserve"
   id="svg14"
   sodipodi:docname="logo-vertical.svg"
   inkscape:version="0.92.4 (5da689c313, 2019-01-14)"><metadata
   id="metadata20"><rdf:RDF><cc:Work
       rdf:about=""><dc:format>image/svg+xml</dc:format><dc:type
         rdf:resource="http://purl.org/dc/dcmitype/StillImage" /><dc:title></dc:title></cc:Work></rdf:RDF></metadata><defs
   id="defs18" /><sodipodi:namedview
   pagecolor="#ffffff"
   bordercolor="#666666"
   borderopacity="1"
   objecttolerance="10"
   gridtolerance="10"
   guidetolerance="10"
   inkscape:pageopacity="0"
   inkscape:pageshadow="2"
   inkscape:window-width="2532"
   inkscape:window-height="2032"
   id="namedview16"
   showgrid="false"
   inkscape:pagecheckerboard="true"
   fit-margin-top="0"
   fit-margin-left="0"
   fit-margin-right="0"
   fit-margin-bottom="0"
   inkscape:zoom="0.118"
   inkscape:cx="895.401"
   inkscape:cy="379.56401"
   inkscape:window-x="108"
   inkscape:window-y="54"
   inkscape:window-maximized="0"
   inkscape:current-layer="svg14" />
<g
   id="Logo_Artwork"
   transform="translate(-104.599,739.95467)">
</g>
<g
   id="Margin_x2F_Guide"
   transform="matrix(2.7920451,0,0,2.7920451,-292.04513,-1732.2862)">
	<g
   id="g11">
		<path
   d="m 208.406,1256.675 v -33.579 H 104.599 v 33.579 h 33.137 v 120.036 h 37.523 v -120.036 z m 82.729,120.036 h 36.658 v -63.854 c 0,-23.487 -3.512,-54.215 -39.5,-54.215 -14.489,0 -24.147,7.908 -28.535,14.714 V 1218.04 H 223.11 v 158.671 h 36.647 v -68.693 c 0,-9.206 6.138,-16.445 16.24,-16.445 8.772,0 15.137,5.705 15.137,16.445 v 68.693 z m 164.159,-48.057 c 0.227,-2.638 0.227,-5.047 0.227,-7.239 0,-39.284 -19.978,-62.772 -56.625,-62.772 -33.795,0 -56.615,26.998 -56.615,60.795 0,34.022 23.252,60.126 61.228,60.126 29.842,0 45.648,-18.648 48.934,-25.455 l -24.137,-18.648 c -2.195,3.284 -10.318,12.294 -24.147,12.294 -13.603,0 -23.478,-8.782 -24.354,-19.1 h 75.489 z m -55.739,-40.386 c 11.409,0 18.215,7.909 18.648,17.125 h -37.307 c 0.885,-8.116 6.59,-17.125 18.659,-17.125 z m 220.558,-17.999 c 0,-30.491 -17.558,-47.173 -53.772,-47.173 h -50.026 v 153.615 h 37.523 v -56.831 h 11.41 l 27.433,56.831 h 41.478 c -35.557,-66.273 -35.331,-65.831 -35.331,-65.831 14.036,-7.681 21.285,-23.704 21.285,-40.611 z m -56.842,-14.912 c 13.613,0 18.433,6.137 18.433,16.238 0,10.535 -6.364,16.898 -16.672,16.898 h -11.193 v -33.137 h 9.432 z m 190.057,73.297 c 0.216,-2.638 0.216,-5.047 0.216,-7.239 0,-39.284 -19.966,-62.772 -56.614,-62.772 -33.807,0 -56.626,26.998 -56.626,60.795 0,34.022 23.262,60.126 61.229,60.126 29.842,0 45.647,-18.648 48.933,-25.455 l -24.138,-18.648 c -2.193,3.284 -10.308,12.294 -24.137,12.294 -13.612,0 -23.478,-8.782 -24.354,-19.1 h 75.491 z m -55.739,-40.386 c 11.409,0 18.206,7.909 18.648,17.125 H 678.93 c 0.876,-8.116 6.58,-17.125 18.659,-17.125 z m 107.525,91.295 c 26.34,0 46.966,-14.479 46.966,-37.966 0,-41.694 -53.104,-33.354 -53.104,-47.842 0,-3.501 3.068,-5.704 8.34,-5.704 8.99,0 15.58,5.487 19.091,9.01 l 23.694,-18.668 c -6.795,-9.208 -19.307,-19.751 -41.251,-19.751 -25.022,0 -44.329,13.396 -44.329,35.556 0,41.921 52.67,36.206 52.67,49.387 0,4.169 -3.294,6.354 -10.318,6.354 -11.635,0 -19.307,-4.603 -25.465,-10.092 l -20.616,19.967 c 6.798,9.225 22.378,19.749 44.322,19.749 z m 167.887,-50.909 c 0.227,-2.638 0.227,-5.047 0.227,-7.239 0,-39.284 -19.977,-62.772 -56.625,-62.772 -33.796,0 -56.615,26.998 -56.615,60.795 0,34.022 23.252,60.126 61.229,60.126 29.842,0 45.648,-18.648 48.943,-25.455 l -24.147,-18.648 c -2.193,3.284 -10.308,12.294 -24.137,12.294 -13.613,0 -23.478,-8.782 -24.363,-19.1 h 75.488 z m -55.74,-40.386 c 11.41,0 18.216,7.909 18.659,17.125 h -37.307 c 0.876,-8.116 6.58,-17.125 18.648,-17.125 z m 136.944,-29.625 c -14.262,0 -25.012,7.022 -30.5,18.216 v -15.364 h -35.773 v 115.217 h 36.648 v -50.909 c 0,-17.331 5.92,-30.295 23.703,-30.295 2.637,0 4.387,0.236 5.922,0.453 z m 50.703,2.851 h -39.293 l 39.512,115.217 h 42.566 l 38.852,-115.217 h -38.191 l -21.727,76.385 z m 200.365,67.16 c 0.217,-2.638 0.217,-5.047 0.217,-7.239 0,-39.284 -19.967,-62.772 -56.625,-62.772 -33.795,0 -56.615,26.998 -56.615,60.795 0,34.022 23.264,60.126 61.229,60.126 29.852,0 45.646,-18.648 48.943,-25.455 l -24.148,-18.648 c -2.191,3.284 -10.307,12.294 -24.137,12.294 -13.602,0 -23.486,-8.782 -24.363,-19.1 h 75.499 z m -55.75,-40.386 c 11.42,0 18.217,7.909 18.66,17.125 h -37.307 c 0.876,-8.116 6.581,-17.125 18.647,-17.125 z m 192.479,29.852 v -33.354 h -38.193 v -28.092 h 43.67 v -33.579 h -81.193 v 153.615 h 37.523 v -58.591 h 38.193 z m 18.863,1.318 c 0,34.671 25.9,60.126 62.557,60.126 36.422,0 63.205,-25.888 63.205,-60.568 0,-34.898 -26.123,-60.353 -63.205,-60.353 -35.557,0 -62.557,25.906 -62.557,60.795 z m 36.658,0 c 0,-16.908 10.752,-28.533 25.898,-28.533 14.92,0 26.547,11.192 26.547,28.091 0,16.465 -11.41,28.307 -26.547,28.307 -14.929,0 -25.898,-11.184 -25.898,-27.865 z m 170.514,-60.795 c -14.262,0 -25.012,7.022 -30.5,18.216 v -15.364 h -35.783 v 115.217 h 36.658 v -50.909 c 0,-17.331 5.932,-30.295 23.703,-30.295 2.637,0 4.389,0.236 5.922,0.453 z m 73.74,88.659 c -16.898,0 -28.309,-11.408 -28.309,-28.307 0,-15.364 9.648,-27.423 26.99,-27.423 8.566,0 16.682,3.286 23.045,8.558 l 9.875,-30.944 c -8.113,-5.714 -19.309,-10.543 -34.229,-10.543 -35.557,0 -62.33,25.239 -62.33,60.578 0,35.331 25.898,60.343 62.547,60.343 14.479,0 26.113,-5.036 33.795,-10.308 l -9.658,-30.067 c -5.044,4.169 -13.159,8.113 -21.726,8.113 z m 153.409,-18.648 c 0.215,-2.638 0.215,-5.047 0.215,-7.239 0,-39.284 -19.967,-62.772 -56.613,-62.772 -33.797,0 -56.625,26.998 -56.625,60.795 0,34.022 23.262,60.126 61.227,60.126 29.842,0 45.65,-18.648 48.943,-25.455 l -24.146,-18.648 c -2.193,3.284 -10.307,12.294 -24.137,12.294 -13.613,0 -23.488,-8.782 -24.354,-19.1 h 75.49 z m -55.741,-40.386 c 11.41,0 18.207,7.909 18.65,17.125 h -37.309 c 0.876,-8.116 6.581,-17.125 18.659,-17.125 z"
   id="path3"
   inkscape:connector-curvature="0"
   style="clip-rule:evenodd;fill:#004d6e;fill-rule:evenodd" />
		<g
   id="g9">
			<path
   d="M 999.744,1014.233 V 994.53 c 178.649,-142.451 360.383,19.614 524.653,8.312 l 5.566,19.288 c -165.703,15.442 -349.516,-151.963 -530.219,-7.897 z m 0,-39.403 c 176.653,-140.858 356.245,15.963 519.036,8.646 l -5.617,-19.534 c -161.316,3.541 -338.813,-148.029 -513.418,-8.813 v 19.701 z m 0,-39.372 c 172.549,-137.603 347.991,8.872 507.745,8.901 l -5.725,-19.829 c -158.258,-3.393 -331.525,-144.713 -502.02,-8.773 z m 0,-39.402 c 168.448,-134.328 339.583,2.085 496.286,8.685 l -5.775,-20.075 c -155.119,-9.62 -324.146,-140.957 -490.51,-8.321 v 19.711 z m 0,-39.403 c 164.297,-130.993 331.192,-4.485 484.688,7.967 l -5.852,-20.292 C 1326.666,829.269 1161.965,707.601 999.744,836.951 Z m 0,-39.402 V 797.55 c 158.024,-126.017 318.424,-13.78 467.063,6.01 l 5.922,20.478 C 1322.457,806.481 1159.881,689.583 999.744,817.251 Z m 0,-39.363 v -19.711 c 153.823,-122.652 309.907,-19.573 455.182,4.268 l 5.979,20.666 C 1313.93,761.197 1155.67,653.544 999.744,777.888 Z m 0,-39.402 v -19.711 c 149.584,-119.289 301.301,-25.11 443.163,2.085 l 6.01,20.852 C 1305.342,716.1 1151.48,617.506 999.744,738.486 Z m 0,-39.403 c 147.469,-117.587 297.022,-27.677 437.124,0.964 l -6.059,-21.009 c -138.381,-29.921 -285.711,-115.561 -431.065,0.334 z"
   id="path5"
   inkscape:connector-curvature="0"
   style="clip-rule:evenodd;fill:#cb1a20;fill-rule:evenodd" />
			<path
   d="m 999.744,1093.026 c 180.696,-144.074 364.497,23.272 530.219,7.831 v -19.702 c -165.764,15.452 -349.535,-151.905 -530.219,-7.819 -180.496,-143.937 -364.071,22.938 -529.696,7.849 v 19.731 c 165.585,15.048 349.2,-151.827 529.696,-7.89 z m 0,-39.391 v 0 c -180.476,-143.927 -364.12,22.907 -529.696,7.878 v -19.729 c 165.595,15.048 349.2,-151.768 529.696,-7.85 180.696,-144.065 364.485,23.232 530.219,7.8 v 19.74 c -165.723,15.403 -349.545,-151.914 -530.219,-7.839 z m 0,-41.065 c -180.742,-147.222 -364.631,29.843 -529.696,6.846 l 98.387,-340.407 c 21.176,-4.554 42.56,-10.435 64.12,-16.691 l -32.665,130.205 53.673,-35.664 50.704,34.267 12.383,-152.946 c 93.194,-24.314 188.572,-34.17 283.093,41.192 v 333.198 z"
   id="path7"
   inkscape:connector-curvature="0"
   style="clip-rule:evenodd;fill:#004d6e;fill-rule:evenodd" />
		</g>
	</g>
</g>
</svg>